<?xml version="1.0" standalone="no"?>
<!DOCTYPE svg PUBLIC "-//W3C//DTD SVG 20010904//EN"
 "http://www.w3.org/TR/2001/REC-SVG-20010904/DTD/svg10.dtd">
<svg version="1.0" xmlns="http://www.w3.org/2000/svg"
 width="512.000000pt" height="512.000000pt" viewBox="0 0 512.000000 512.000000"
 preserveAspectRatio="xMidYMid meet">
<metadata>
Created by potrace 1.11, written by Peter Selinger 2001-2013
</metadata>
<g transform="translate(0.000000,512.000000) scale(0.100000,-0.100000)"
fill="#000000" stroke="none">
<path d="M2364 5113 c-22 -4 12 -39 388 -405 1094 -1065 1125 -1097 1235
-1265 124 -190 230 -458 258 -653 4 -24 8 -47 10 -50 19 -30 22 -371 5 -488
-59 -400 -220 -724 -499 -1002 -161 -160 -335 -281 -513 -356 -46 -19 -92 -40
-103 -45 -12 -6 -27 -11 -35 -13 -8 -2 -22 -6 -30 -9 -54 -23 -239 -64 -325
-73 -27 -3 -61 -7 -75 -10 -33 -5 -276 -5 -320 0 -178 24 -291 50 -430 98
-476 167 -882 570 -1048 1041 -47 135 -59 181 -86 332 -23 126 -23 394 -1 515
1 8 6 33 9 55 33 212 144 488 272 677 72 107 129 173 285 333 70 72 173 177
229 235 56 58 174 178 262 267 l160 163 -104 101 c-57 55 -160 157 -230 226
l-128 125 -37 -17 c-267 -126 -465 -254 -649 -420 -310 -280 -537 -604 -687
-985 -47 -119 -102 -302 -122 -400 -14 -73 -37 -221 -44 -290 -9 -89 -6 -470
4 -530 3 -19 13 -78 21 -130 128 -791 636 -1487 1354 -1854 182 -94 396 -174
560 -212 71 -16 164 -35 196 -39 21 -4 53 -9 69 -12 68 -11 99 -13 300 -17
207 -4 388 10 519 39 12 3 32 7 46 9 32 5 184 44 230 58 794 250 1403 843
1673 1628 35 101 80 268 91 340 3 19 8 46 10 60 23 128 31 227 31 415 0 258
-11 353 -70 617 -20 88 -70 240 -125 378 -40 101 -160 324 -235 435 -393 585
-1008 980 -1710 1100 -116 20 -211 27 -385 29 -113 2 -214 1 -226 -1z"/>
<path d="M2393 3858 c-61 -62 -150 -153 -198 -203 -48 -49 -160 -164 -250
-255 -205 -209 -256 -267 -312 -355 -51 -80 -101 -196 -130 -302 -23 -85 -27
-118 -28 -243 0 -184 9 -242 62 -385 123 -333 420 -587 774 -664 100 -22 234
-28 334 -16 116 14 283 66 375 116 125 68 279 202 359 312 81 112 157 277 176
386 3 19 8 37 10 41 5 9 17 137 17 195 2 214 -79 453 -211 627 -30 40 -109
126 -175 192 -312 307 -678 661 -685 664 -4 1 -57 -48 -118 -110z m788 -1084
c114 -67 98 -231 -26 -271 -16 -5 -132 -9 -258 -9 l-227 1 -1 -50 c0 -27 0
-160 0 -295 0 -135 -4 -261 -9 -281 -35 -130 -217 -147 -275 -26 -12 26 -15
90 -17 341 l-3 309 -225 1 c-207 1 -228 3 -260 21 -91 54 -98 187 -12 250 38
28 100 30 729 29 519 -2 555 -3 584 -20z"/>
</g>
</svg>
